<?xml version="1.0" encoding="UTF-8"?>
<svg id="Layer_1" xmlns="http://www.w3.org/2000/svg" version="1.1" viewBox="0 0 498.82 410.5">
  <!-- Generator: Adobe Illustrator 30.6.0, SVG Export Plug-In . SVG Version: 2.1.4 Build 109)  -->
  <g id="Generative_Object">
    <g>
      <path d="M5.08,87.89c.17-.53.06-1.41.02-2.23l4.26,1.76h480.88l4.19.83c2.56,5.59,1.21,9.6,1.21,15.45l.29,268.71c-3.62,23.65-22.89,37.92-46.07,34.9l-153.97-.02-261.28-.28c-18.05-4.12-27.96-18.22-31.81-35.92,2.28-12.8.81-27.85.84-41.87l.05-20.53.1-92.33.02-51.36-.25-51.4c-.04-8.85-.9-18.04,1.5-25.72ZM286.37,98.64c.22-.61.78-.58,1.21-.57-.43,0-.99-.05-1.21.57-15.74,1.33-28.49,11.68-35.33,26.24l-3.29-1.87c-7.19-17.21-24.94-27.32-44.08-23.76-19.76,3.67-34.54,17.85-38.62,38.04-15.14,4.87-24.66,17.32-26.94,33.36-24.78,15.97-31.28,35.34-23.59,63.89-13.63,20.24-11.85,45.91,5.77,63.6,2.87,2.88,9.43,5.75,9.36,10.4-.32,22.5,12.28,42.09,34.84,48.42,7.66,18.93,24.15,32.13,44.34,34.01,18.15,1.7,32.18-10.01,40.43-24.64l2.32-.03c8.32,14.71,22.33,26.28,40.46,24.69,20.47-1.79,36.34-15.03,44.15-34,22.7-6.2,35.31-26.08,35.08-48.52-.05-5.1,42.29-28.86,15.08-73.96,7.81-28.61,1.12-47.6-23.55-63.92-2.35-15.96-11.74-28.46-26.98-33.28-4.62-24.25-25.23-38.73-48.24-39.23-.43,0-.99-.05-1.21.57Z" style="fill: #63a5da;"/>
      <path d="M38.73,58.72c-6.43-6.53-6.75-15.91-1.99-22.93s14.26-9.79,22.63-6.09c11.08,4.9,14.63,17.99,7.67,27.38-6.58,8.87-19.49,10.59-28.31,1.65Z" style="fill: #7b5da7;"/>
      <path d="M90.43,59.37c-5.56-5.22-7.29-12.4-5.04-19.02,2.02-5.94,7.19-10.57,14.13-11.75,8.72-1.48,17.2,2.72,20.56,11,3.13,7.72.96,16.58-6.38,21.74-6.68,4.7-16.27,4.6-23.26-1.98Z" style="fill: #65aadd;"/>
      <path d="M145.62,31.01c2.34-1.04,4.16-2.29,6.13-2.59,9.71-1.48,18.35,4.54,20.71,13.33s-2.86,17.77-10.4,21.07c-9.33,4.08-18.95-.43-23.02-7.49-4.95-8.6-2.7-20.2,6.57-24.32Z" style="fill: #4297d3;"/>
      <path d="M286.37,98.64c.22-.61.78-.58,1.21-.57,23.01.5,43.62,14.99,48.24,39.23,15.24,4.82,24.63,17.32,26.98,33.28,24.67,16.33,31.36,35.31,23.55,63.92,27.21,45.1-15.13,68.86-15.08,73.96.23,22.44-12.37,42.31-35.08,48.52-7.81,18.97-23.68,32.21-44.15,34-18.13,1.58-32.14-9.98-40.46-24.69l-2.32.03c-8.24,14.64-22.28,26.34-40.43,24.64-20.19-1.89-36.68-15.08-44.34-34.01-22.56-6.33-35.16-25.92-34.84-48.42.07-4.65-6.49-7.51-9.36-10.4-17.63-17.69-19.4-43.36-5.77-63.6-7.69-28.56-1.19-47.92,23.59-63.89,2.27-16.05,11.8-28.49,26.94-33.36,4.08-20.18,18.86-34.36,38.62-38.04,19.14-3.56,36.89,6.55,44.08,23.76l3.29,1.87c6.84-14.55,19.59-24.91,35.33-26.24.22-.61.78-.58,1.21-.57-.43,0-.99-.05-1.21.57ZM233.49,200.72c1.45-.26,4.55-.58,4.53-3.48l-.34-63.88c-.04-7.57-6.18-14.64-12.67-17.91-10.56-5.32-22.11-3.7-32.42,2.83-7.81,4.95-13.72,14.76-14.52,25.24,7.78,2.33,13.56,5.54,18.09,10.93-1.33,2.56-3.36,5.06-6.6,5.84-6.49-7.54-15.47-11.05-24.29-7.35-7.59,3.19-13.22,11.42-12.7,19.87,7.72-.03,16.05.74,22.38,5.53,2.36,1.79-.13,5.11-1.57,6.01-2.09,1.31-4.87-.32-7.28-1.24-11.96-4.62-25.26.79-32.93,9.69-8.24,9.56-10.62,22.43-5.79,35.01,15.18-9.19,37.14-9.04,30.09.98,1.77,2.78,2.42,6.26-.28,8.01-1.39-1.44-2.73-2.84-3.81-5.21-.29-2.6-1.52-1.5-2.97-.07-3.87-2.19-8.02-1.52-11.86.4-14.37,7.18-22.12,23.49-18.47,39.17,3.42,14.67,15.25,27.04,31.59,28.45,13.72,1.18,19.1-9.57,22.16-3.51,3.73,7.38-14.69,15.17-29.29,11.21-3.11,15.97,5.52,32.57,21.77,37.28-.18-15.46,7.4-29.63,22.39-32.37,2.35-.43,5.95.48,6.9,1.99.82,1.31.7,5.2-1.5,5.5-9.4,1.28-16.62,6.42-18.31,17.11-3.23,20.49,13.37,40.9,34.77,42.25,12.04.76,26.68-6.9,26.82-19.83l.67-62.23c.04-4.13-5.11-2.1-6.33-3.67-1.4-1.79-5.73-2.57-7.55-3.99-8.16-6.36-15.59-13.93-19.11-23.29-3.53.25-4.45-1.69-6.07-3.87,1.83-.15,2.46-.01,3.51-.98l-1.09-11.43c-.52-1.47-2.53-1.9-4.14-3.1,1.59.43,1.59-1.77,3.73-1.42.1-8.26,3.05-16.39,7.17-23.64l-2.89-4.87c6.86,2.56,7.51-3.98,20.47-12.46,2.14-1.4,5.56-3.07,7.74-3.47ZM269.13,199.75c1.4,2.21,4.91,2.9,7.05,4.2,5.88,3.56,12.1,7.48,15.75,13.27l5.02,7.97c3.07,4.88,3.72,11.07,4.69,17.18l1.01,3.45c1.06,1.29,2.86,1.46,4.17.83-3.8.15-5.8,5.9-5.75,9.34.06,3.91,2.09,7.16,5.06,9.42-2.09.4-4.18,1.65-7.77.54-4.71,8.41-10.7,15.7-19.19,22.62l1.72,3.51c.71,1.46-.34,4.44-2.01,4.93l1.29.94-1.29-.94c-.37-.27-.89-.39-1.07-.74-.92-1.77-4.32-4.22-6.9-3.41-1.82.58-6.28.41-6.3,3.64l-.36,58.96c-.09,15.01,13.8,25.1,28.68,23.47,17.26-1.89,31.92-16.23,33.82-33.48,1.23-11.15-3.91-22.69-14.49-24.9-3.04-.64-5.24-.79-5.9-3.06-.67-2.35.2-4.12,2.01-5.12,8.17-4.51,29.13,10.22,27.63,32.47,15.69-6.02,24.7-20.93,22.19-37.4-17.89,4.2-34.87-6.8-29.29-12.16,4.74-4.55,11.66,9.98,31.67,1.92,14.23-5.74,23.15-18.86,22.98-33.54-.29-24.75-23.5-35.59-27.96-33.26-.58.31-.28,3.13-1.58,2.73-1.62-.5-2.84-.52-4.05-.56-2.57-.09-1.96,3.16-3.76,3.49-1.51-4.34-3.07-9.54-2.85-10.7,1.08-5.78,19.5-5.21,31.34,2.45,5.22-12.66,2.37-26.2-5.68-35.25-17.42-19.55-36.77-6.72-40.5-8.35-1.61-.7-3.34-4.26-1.4-5.83,6.12-4.96,14.28-5.96,22.58-5.99.16-8.64-5.32-15.76-11.46-18.83-16.05-8.03-23.9,7.84-29.17,5.38-1.17-.54-2.55-2.76-1.52-5.1,2.77-6.28,9.97-8.76,16.71-10.72-2.54-18.6-19.7-33.33-38.9-30.35-13.46,2.09-21.57,12.94-21.41,25.95l.72,57.37c.01.9.32,3.92,1.58,3.84l2.9-.18ZM249.75,208.99h2.17s-2.17,0-2.17,0c-20.27.07-36.51,16.94-36.51,37.19s16.22,36.83,36.51,37.19c20.08.36,37.46-15.39,37.85-36.48.38-20.53-15.44-37.98-35.69-37.91h-2.17Z" style="fill: #194798;"/>
      <path d="M346.2,236.06c1.8-.33,1.2-3.58,3.76-3.49,1.2.04,2.43.06,4.05.56,1.3.4,1-2.43,1.58-2.73,4.45-2.34,27.67,8.51,27.96,33.26.17,14.68-8.74,27.8-22.98,33.54-20,8.06-26.93-6.47-31.67-1.92-5.58,5.36,11.41,16.36,29.29,12.16,2.52,16.47-6.5,31.38-22.19,37.4,1.5-22.25-19.46-36.98-27.63-32.47-1.81,1-2.69,2.77-2.01,5.12.65,2.27,2.85,2.43,5.9,3.06,10.57,2.21,15.72,13.75,14.49,24.9-1.9,17.25-16.56,31.59-33.82,33.48-14.87,1.63-28.77-8.46-28.68-23.47l.36-58.96c.02-3.24,4.48-3.07,6.3-3.64,2.59-.82,5.98,1.64,6.9,3.41.19.36.71.47,1.07.74l1.29.94-1.29-.94c1.66-.49,2.72-3.47,2.01-4.93l-1.72-3.51c8.5-6.92,14.48-14.21,19.19-22.62,3.59,1.11,5.68-.14,7.77-.54-2.96-2.26-5-5.52-5.06-9.42-.05-3.43,1.95-9.19,5.75-9.34l27.76-1.06c4.73-.18,6.85-8.65,11.61-9.52Z" style="fill: #536db4;"/>
      <path d="M157.19,236.79l9.14,9.48,25.8.24c1.57.01,4.13-.69,5.15.07,1.61,1.2,3.63,1.64,4.14,3.1l1.09,11.43c-1.05.97-1.68.83-3.51.98,1.62,2.18,2.53,4.12,6.07,3.87,3.52,9.36,10.96,16.93,19.11,23.29-14.79,14.53-15.02,14.73-14.34,35.78-6.13,2.17-9.21,7.86-7.99,13.95,1.03,5.17,4.95,9.1,10.82,9.4,5.19.27,10.38-3.36,11.62-8.09,1.53-5.81-.12-11.35-6.66-14.68-1.45-19.04.44-19.91,14.1-32.38,1.22,1.57,6.38-.46,6.33,3.67l-.67,62.23c-.14,12.93-14.77,20.59-26.82,19.83-21.4-1.34-38.01-21.76-34.77-42.25,1.69-10.69,8.91-15.83,18.31-17.11,2.2-.3,2.32-4.19,1.5-5.5-.94-1.51-4.55-2.42-6.9-1.99-15,2.73-22.57,16.91-22.39,32.37-16.25-4.71-24.88-21.31-21.77-37.28,14.61,3.96,33.02-3.83,29.29-11.21-3.06-6.07-8.44,4.69-22.16,3.51-16.34-1.41-28.17-13.77-31.59-28.45-3.65-15.67,4.09-31.99,18.47-39.17,3.84-1.92,7.99-2.58,11.86-.4,1.45-1.42,2.68-2.53,2.97.07,1.08,2.37,2.42,3.77,3.81,5.21ZM136.8,263.9c-3.73,1.97-5.29,6.46-3.46,10.4s7.99,6.74,11.76,3.06l6.32-6.17-4.52-4.91c-2.9-3.15-6.84-4.1-10.11-2.37Z" style="fill: #596ab2;"/>
      <path d="M233.49,200.72c-1.38-3.48-.17-6.95-.76-10.86l-19.65-20.4-.05-18.84c6.51-2.55,8.39-8.5,7.26-13.92-1.18-5.61-6.84-9.1-11.65-8.86-6.44.32-10.89,4.8-11.51,10.28-.62,5.46,2.68,10.49,7.9,12.85l.9,19.28c.04.9.88,1.85.34,3.05l18.03,18.57,1.47,12.31c-12.95,8.49-13.61,15.03-20.47,12.46l2.89,4.87c-4.13,7.25-7.08,15.38-7.17,23.64-2.14-.36-2.14,1.85-3.73,1.42-1.01-.76-3.58-.05-5.15-.07l-25.8-.24-9.14-9.48c2.7-1.75,2.06-5.23.28-8.01,7.06-10.02-14.91-10.17-30.09-.98-4.83-12.58-2.45-25.45,5.79-35.01,7.67-8.9,20.97-14.31,32.93-9.69,2.4.93,5.18,2.56,7.28,1.24,1.44-.9,3.93-4.23,1.57-6.01-6.34-4.79-14.66-5.56-22.38-5.53-.52-8.45,5.11-16.68,12.7-19.87,8.82-3.7,17.81-.19,24.29,7.35,3.25-.78,5.27-3.27,6.6-5.84-4.53-5.38-10.31-8.59-18.09-10.93.81-10.48,6.71-20.29,14.52-25.24,10.31-6.53,21.86-8.15,32.42-2.83,6.49,3.27,12.63,10.34,12.67,17.91l.34,63.88c.02,2.9-3.09,3.22-4.53,3.48Z" style="fill: #43aae0;"/>
      <path d="M269.13,199.75l-2.9.18c-1.26.08-1.57-2.94-1.58-3.84l-.72-57.37c-.16-13.01,7.95-23.86,21.41-25.95,19.2-2.98,36.36,11.76,38.9,30.35-6.74,1.97-13.94,4.45-16.71,10.72-1.03,2.34.35,4.56,1.52,5.1,5.27,2.45,13.12-13.42,29.17-5.38,6.14,3.07,11.62,10.19,11.46,18.83-8.29.03-16.46,1.03-22.58,5.99-1.94,1.57-.21,5.12,1.4,5.83,3.73,1.63,23.08-11.2,40.5,8.35,8.06,9.04,10.9,22.59,5.68,35.25-11.84-7.66-30.26-8.23-31.34-2.45-.22,1.16,1.34,6.36,2.85,10.7-4.76.87-6.88,9.34-11.61,9.52l-27.76,1.06c-1.31.63-3.11.46-4.17-.83l-1.01-3.45c-.97-6.11-1.62-12.3-4.69-17.18,4.08-5.28,9.44-10.07,16.13-12.32,4.83,5.06,11.33,5.03,16.17,1.58,4.02-2.87,5.68-8.51,3.61-13.83s-7.8-8.14-13.27-6.54c-4.87,1.43-9.45,4.2-9.4,11.54-7.23,1.31-11.79,7.54-18.26,11.6-3.65-5.79-9.87-9.7-15.75-13.27l2.64-12.46,18.36-19.65.05-21.34c6.66-3.04,8.87-8.76,7.63-13.89-1.33-5.52-6.59-8.99-10.4-9.01-7.52-.6-11.44,3.84-12.65,9.32-1.33,5.78,1.48,10.8,7.59,13.46l-.07,19.06-18.31,19.39-1.88,10.91Z" style="fill: #48abe0;"/>
      <path d="M249.75,208.99h2.17c20.25-.08,36.08,17.38,35.69,37.9-.4,21.09-17.77,36.83-37.85,36.48-20.29-.36-36.5-16.94-36.51-37.19s16.24-37.12,36.51-37.19h2.17s-2.17,0-2.17,0ZM266.56,247.26c.06-10.18-9.53-15.45-16.85-14.91-9.09.67-14.86,8.9-13.52,17.29s8.98,15.07,18.18,12.84c5.8-1.41,12.15-8.13,12.19-15.22Z" style="fill: #92b3de;"/>
      <path d="M233.49,200.72c-2.18.4-5.6,2.06-7.74,3.47l-1.47-12.31-18.03-18.57c.53-1.2-.3-2.14-.34-3.05l-.9-19.28c-5.22-2.36-8.53-7.4-7.9-12.85.63-5.47,5.07-9.95,11.51-10.28,4.81-.24,10.48,3.25,11.65,8.86,1.14,5.42-.74,11.37-7.26,13.92l.05,18.84,19.65,20.4c.58,3.91-.63,7.38.76,10.86ZM206.55,143.51c3.75,2.25,5.82-.27,6.35-2.07.81-2.75-.08-5.31-2.05-6.17-2.08-.9-5.39.14-6.18,2.1-.63,1.56.32,5.2,1.88,6.14Z" style="fill: #fafdfd;"/>
      <path d="M276.18,203.95c-2.14-1.3-5.66-1.99-7.05-4.2l1.88-10.91,18.31-19.39.07-19.06c-6.11-2.66-8.92-7.68-7.59-13.46,1.21-5.48,5.13-9.93,12.65-9.32,3.81.02,9.07,3.49,10.4,9.01,1.24,5.13-.97,10.86-7.63,13.89l-.05,21.34-18.36,19.65-2.64,12.46ZM290.21,135.51c-2.85,2.79-1.77,5.79.27,7.51,1.68,1.42,4.01,1.34,5.67-.18,1.89-1.73,2.07-4.88.83-6.42-1.61-2-4.53-3.11-6.77-.92Z" style="fill: #f9fcfe;"/>
      <path d="M231.73,293.25c-13.66,12.47-15.55,13.33-14.1,32.38,6.54,3.33,8.2,8.86,6.66,14.68-1.24,4.72-6.44,8.35-11.62,8.09-5.86-.3-9.79-4.23-10.82-9.4-1.21-6.09,1.87-11.78,7.99-13.95-.69-21.05-.45-21.25,14.34-35.78,1.82,1.42,6.16,2.2,7.55,3.99ZM211.67,332.35c-3.24,1.25-4.25,4.41-1.73,7.54-.13.93,3.25,1.79,5.42.87,1.67-.71,2.78-3.09,2.1-5.57-.54-1.94-2.89-3.72-5.79-2.85Z" style="fill: #fbfdff;"/>
      <path d="M296.95,225.18l-5.02-7.97c6.47-4.06,11.03-10.29,18.26-11.6-.06-7.35,4.52-10.11,9.4-11.54,5.47-1.6,11.29,1.45,13.27,6.54s.4,10.96-3.61,13.83c-4.83,3.45-11.33,3.48-16.17-1.58-6.68,2.25-12.05,7.04-16.13,12.32ZM317.8,202.09c-.87,3.76-.3,6.36,3.6,7.25,1.01,1.41,3.44-.15,4.64-2.09,1.44-2.33.03-4.35-1.29-5.47-1.59-1.37-5.42-1.7-6.96.32Z" style="fill: #fbfdfe;"/>
      <path d="M266.56,247.26c-.04,7.09-6.39,13.82-12.19,15.22-9.2,2.23-16.88-4.63-18.18-12.84s4.43-16.62,13.52-17.29c7.32-.54,16.9,4.73,16.85,14.91Z" style="fill: #fff;"/>
      <path d="M206.55,143.51c-1.56-.94-2.5-4.58-1.88-6.14.79-1.96,4.1-3,6.18-2.1,1.97.86,2.87,3.42,2.05,6.17-.53,1.8-2.6,4.32-6.35,2.07Z" style="fill: #3fc5eb;"/>
      <path d="M290.21,135.51c2.23-2.19,5.16-1.08,6.77.92,1.24,1.54,1.06,4.69-.83,6.42-1.65,1.51-3.98,1.6-5.67.18-2.04-1.72-3.12-4.72-.27-7.51Z" style="fill: #45c6e6;"/>
      <path d="M211.67,332.35c2.91-.87,5.25.91,5.79,2.85.69,2.48-.42,4.86-2.1,5.57-2.18.92-5.55.06-5.42-.87-2.52-3.14-1.51-6.29,1.73-7.54Z" style="fill: #5264ae;"/>
      <path d="M317.8,202.09c1.54-2.02,5.37-1.69,6.96-.32,1.31,1.13,2.73,3.14,1.29,5.47-1.2,1.94-3.63,3.5-4.64,2.09-3.9-.89-4.47-3.49-3.6-7.25Z" style="fill: #55a1d8;"/>
      <path d="M136.8,263.9c3.27-1.73,7.21-.78,10.11,2.37l4.52,4.91-6.32,6.17c-3.77,3.68-9.85,1.04-11.76-3.06s-.27-8.42,3.46-10.4Z" style="fill: #4f77bb; stroke: #fbfdff; stroke-linecap: round; stroke-linejoin: round; stroke-width: 3.49px;"/>
    </g>
    <g>
      <line x1="9.34" y1="87.42" x2="490.22" y2="87.42" style="fill: none; stroke: #010101; stroke-linecap: round; stroke-linejoin: round; stroke-width: 5.58px;"/>
      <path d="M495.57,79.59l.45-33.7c.33-25.12-17.74-42.75-42.55-42.78l-147.12-.17-34.76.45-30.78.39c-15.17.19-29.76-2.14-44.98.31-10.63-2.02-21.15-1.25-31.95-.58l-24.57.09-100.73.34C14.19,5.52.69,28.76,3.57,50.71l1.51,34.94c.04.81.14,1.69-.02,2.23-2.4,7.69-1.54,16.87-1.5,25.72l.25,51.4-.02,51.36-.1,92.33-.05,20.53c-.04,14.02,1.43,29.07-.84,41.87,3.85,17.7,13.76,31.8,31.81,35.92l261.28.28,153.97.02c23.19,3.02,42.45-11.25,46.07-34.9l-.29-268.71c0-5.85,1.35-9.86-1.21-15.45-1.36-2.97,1.13-6.37,1.16-8.66Z" style="fill: none; stroke: #010101; stroke-linecap: round; stroke-linejoin: round; stroke-width: 5.58px;"/>
      <path d="M53.95,178.67c-16.85,37.25-19.2,79.99-2.56,117.56" style="fill: none; stroke: #fbfdff; stroke-linecap: square; stroke-linejoin: round; stroke-width: 3.49px;"/>
      <path d="M93.83,163.82c4.42,2.17,9.69,3.59,13.91.35,3.92-3,5.48-8.25,2.74-13.26-2.09-3.83-9.24-7.38-13.63-3.24-5.24,4.93-6.1,13.15-9.96,19.2-27.01,42.24-32.65,88.89-10.41,134.15,4.01,8.17,9.07,15.34,14.35,23.16l2.67,18.96c2.39,5.28,8.66,6.08,12.68,4.15,5.12-2.46,6.8-7.94,5.21-12.59-1.94-5.65-7.89-7.15-13.36-7.13" style="fill: none; stroke: #fbfdff; stroke-linecap: round; stroke-linejoin: round; stroke-width: 3.49px;"/>
      <path d="M92.04,202.91c-7.47,22.38-10.39,46.61-2.35,69.03" style="fill: none; stroke: #fbfdff; stroke-linecap: round; stroke-linejoin: round; stroke-width: 4.18px;"/>
      <path d="M250.38,365.26c-.23.64-.56,1.28-1.15,1.06-8.24,14.64-22.28,26.34-40.43,24.64-20.19-1.89-36.68-15.08-44.34-34.01-22.56-6.33-35.16-25.92-34.84-48.42.07-4.65-6.49-7.51-9.36-10.4-17.63-17.69-19.4-43.36-5.77-63.6-7.69-28.56-1.19-47.92,23.59-63.89,2.27-16.05,11.8-28.49,26.94-33.36,4.08-20.18,18.86-34.36,38.62-38.04,19.14-3.56,36.89,6.55,44.08,23.76" style="fill: none; stroke: #fbfdff; stroke-linecap: round; stroke-linejoin: round; stroke-width: 4.18px;"/>
      <line x1="250.42" y1="286.19" x2="250.38" y2="365.26" style="fill: none; stroke: #fbfdff; stroke-linecap: round; stroke-linejoin: round; stroke-width: 4.18px;"/>
      <path d="M250.38,365.26c.23.67.59,1.31,1.17,1.03,8.32,14.71,22.33,26.28,40.46,24.69,20.47-1.79,36.34-15.03,44.15-34,22.7-6.2,35.31-26.08,35.08-48.52-.05-5.1,42.29-28.86,15.08-73.96,7.81-28.61,1.12-47.6-23.55-63.92-2.35-15.96-11.74-28.46-26.98-33.28-4.62-24.25-25.23-38.73-48.24-39.23-.43,0-.99-.05-1.21.57-15.74,1.33-28.49,11.68-35.33,26.24l-.6,81.8" style="fill: none; stroke: #fbfdff; stroke-linecap: round; stroke-linejoin: round; stroke-width: 4.18px;"/>
      <path d="M448.47,179.21c17.43,37.82,17.83,83.65.53,121.56-.31.43-1.13,1.3-1.61.93-.52-.46-1.34-1.21-1.85-1.66-.04-.09-.11.05,0-.16.72-1.33,1.41-2.72,2.02-4.1,14.72-36.4,14.38-79.38-2.25-115.07,0,0-.75-1.58-.75-1.58l3.15-1.5s.75,1.58.75,1.58h0Z" style="fill: #fbfdff;"/>
      <path d="M151.35,269.43c7.9-.2,27.9-.71,35.52-.9.79-.04,1.61.04,2.32-.28,2.85-1.22,4.86-4.31,8.5-4.18,0,0,1.74.11,1.74.11l-.22,3.48-1.74-.11c-2.84.38-4.87,3.65-7.93,4.24-.82.23-1.77.19-2.58.22-7.54.19-27.73.7-35.52.9,0,0-1.74.04-1.74.04l-.09-3.49,1.74-.04h0Z" style="fill: #fbfdff;"/>
      <path d="M408.57,205.55c8.1,21.08,7.89,44.58,2.93,66.48" style="fill: none; stroke: #fbfdff; stroke-linecap: round; stroke-linejoin: round; stroke-width: 4.18px;"/>
      <path d="M153.36,231.58c1.08,2.37,2.42,3.77,3.81,5.21l9.14,9.48,25.8.24" style="fill: none; stroke: #fbfdff; stroke-linecap: round; stroke-linejoin: round; stroke-width: 4.18px;"/>
      <path d="M186.74,206.91c-.72-2.95-1.25-5.73-3.91-6.97-2.3-1.07-5.29-.38-6.69,1.77-1.98,2.71-.61,7.23,2.68,8.17,1.57.44,3.61.11,5.67-.38,4.45-1.05,9.46-2.76,14.1-.55,1.48,1.06,7.21,4.22,6.4,6.03-.5.66-1.4,1.85-1.91,2.53-.09.1,0,.06-.1,0-1.73-1.58-4.26-3.99-5.89-5.43-4.83-2.13-10.19,1-15.29,1.42-4.16.64-8.32-1.8-9.6-5.9-3.07-9.5,9.07-15.97,15.29-8.27,1.64,2.22,2.14,4.65,2.65,6.81.22.94-.36,1.88-1.29,2.1-.95.23-1.91-.38-2.11-1.34h0Z" style="fill: #fbfdff;"/>
      <path d="M279.33,295.45c-.23-.39-.37-.37-.24-.32.28.07,1.47.94,1.79,1.19,13.89,9.95,9.11,23.5,3.01,36.39-.71,1.87-1.63,3.51-1.41,5.24.96,1.92,2.81,3.83,4.9,4.15,5.43.79,10.1-7.14,4.95-10.8-1.5-1.33-3.59-2.72-5.33-4.01,0,0,2.06-2.82,2.06-2.82,1.86,1.4,3.72,2.6,5.59,4.23,7.7,5.92,1.05,18.22-7.87,16.83-3.63-.58-7.66-4.39-7.86-8.04.08-2.28,1.03-4.37,1.76-6.16,2.62-6.04,5.73-12.1,5.77-18.66.15-6.2-3.89-11.39-9.01-14.48-.24-.15-.76-.37-1.2-1.14l-.81-1.55,3.09-1.61.81,1.55h0Z" style="fill: #fbfdff;"/>
      <path d="M307.38,263.74c2.22,1.65,3.69,4.32,6.44,4.72.09.02.34.02.56.02h.67s10.68.21,10.68.21l21.35.39c.33,0,.65.09.93.24l12.56,6.55c.37.19.84.46,1.21.55,1.05.29,1.9-.12,2.78-.96,3.16-3.11,2.13-9.8-2.69-10.29-3.07-.3-5.4,2.24-7.84,3.94-1.93,1.47-4.23,2.9-6.85,3.69l-2,.61-1.18-4,2-.62c4.43-1.25,7.54-5.4,11.93-7.18,4.22-1.79,9.79.3,11.64,4.57,2.78,5.71-.5,14.71-7.64,14.5-1.18-.05-2.3-.55-3.3-1.09,0,0-12.56-6.55-12.56-6.55l.93.24-21.35-.39c-.73-.02-11.7-.19-12.11-.24-4.5-.28-7.16-4.79-10.36-6.84,0,0,2.54-3.33,2.54-3.33l1.66,1.27h0Z" style="fill: #fbfdff;"/>
      <path d="M346.18,236.06c-4.76.87-6.88,9.34-11.61,9.52l-27.76,1.06" style="fill: none; stroke: #fbfdff; stroke-linecap: round; stroke-linejoin: round; stroke-width: 4.18px;"/>
      <path d="M405.22,164.57c-4.97,2.05-10.91,2.66-14.75-1.73-3.83-4.37-3.51-11.38,1.82-15.12,4.63-3.25,12.52-2.43,14.79,3.68l6.12,16.48c32.98,46.44,32.05,106.99-1.12,153.22l-5.43,22.04c-1.42,5.76-9.47,6.11-13.53,3.66-5.31-3.2-6.21-9.41-3.57-13.94,2.98-5.11,8.97-5.42,14.25-4.49" style="fill: none; stroke: #fbfdff; stroke-linecap: round; stroke-linejoin: round; stroke-width: 3.49px;"/>
      <path d="M249.73,208.99h2.17c20.25-.08,36.08,17.38,35.69,37.9-.4,21.09-17.77,36.83-37.85,36.48-20.29-.36-36.5-16.94-36.51-37.19s16.24-37.12,36.51-37.19h2.17s-2.17,0-2.17,0Z" style="fill: none; stroke: #fbfdff; stroke-linecap: round; stroke-linejoin: round; stroke-width: 4.18px;"/>
    </g>
  </g>
</svg>